<svg xmlns="http://www.w3.org/2000/svg" xmlns:xlink="http://www.w3.org/1999/xlink" viewBox="0 0 348 348"><defs><style>.a{fill:url(#a);}.b{font-size:48px;fill:#f2f2f2;font-family:LucidaConsole, Lucida Console;}.c{fill:#fff;}</style><linearGradient id="a" x2="348" y2="348" gradientUnits="userSpaceOnUse"><stop offset="0" stop-color="#7620bd"/><stop offset="1" stop-color="#b21714"/></linearGradient></defs><rect class="a" width="348" height="348"/><text class="b" transform="translate(87.23 317.01)">Extend</text><path class="c" d="M164.91,85a12.54,12.54,0,0,1-12.5,12.5h-75a12.5,12.5,0,0,1,0-25h75A12.53,12.53,0,0,1,164.91,85Z" transform="translate(0 0)"/><path class="c" d="M164.91,235a12.54,12.54,0,0,1-12.5,12.5h-75a12.5,12.5,0,1,1,0-25h75A12.53,12.53,0,0,1,164.91,235Z" transform="translate(0 0)"/><path class="c" d="M164.91,160a12.54,12.54,0,0,1-12.5,12.5h-75a12.5,12.5,0,0,1,0-25h75A12.53,12.53,0,0,1,164.91,160Z" transform="translate(0 0)"/><path class="c" d="M279.16,150.75a12.52,12.52,0,0,1,0,17.68l-74.92,74.93a12.5,12.5,0,0,1-17.68-17.68l74.93-74.93A12.53,12.53,0,0,1,279.16,150.75Z" transform="translate(0 0)"/><path class="c" d="M279.44,243.33a12.54,12.54,0,0,1-17.68,0L186.83,168.4a12.5,12.5,0,0,1,17.68-17.67l74.93,74.92A12.54,12.54,0,0,1,279.44,243.33Z" transform="translate(0 0)"/></svg>