<svg xmlns="http://www.w3.org/2000/svg" xmlns:xlink="http://www.w3.org/1999/xlink" viewBox="0 0 218.17 175"><defs><style>.a{fill:url(#a);}</style><linearGradient id="a" x1="64.91" y1="160" x2="283.09" y2="160" gradientUnits="userSpaceOnUse"><stop offset="0" stop-color="#7620bd"/><stop offset="1" stop-color="#b21714"/></linearGradient></defs><path class="a" d="M164.91,85a12.54,12.54,0,0,1-12.5,12.5h-75a12.5,12.5,0,0,1,0-25h75A12.53,12.53,0,0,1,164.91,85Zm-12.5,137.5h-75a12.5,12.5,0,1,0,0,25h75a12.5,12.5,0,0,0,0-25Zm0-75h-75a12.5,12.5,0,0,0,0,25h75a12.5,12.5,0,0,0,0-25Zm109.08,3.25-74.93,74.93a12.5,12.5,0,0,0,17.68,17.68l74.92-74.93a12.5,12.5,0,1,0-17.67-17.68Zm17.95,74.9-74.93-74.92a12.5,12.5,0,0,0-17.68,17.67l74.93,74.93a12.5,12.5,0,1,0,17.68-17.68Z" transform="translate(-64.91 -72.5)"/></svg>